<svg width="250" height="200" viewBox="0 0 250 200" fill="none" xmlns="http://www.w3.org/2000/svg">
<path d="M235.78 75.8567C227.108 61.7965 212.554 51.7682 196.804 48.2532C153.642 38.5351 145.767 53.0088 103.003 31.4016C78.7801 19.0989 62.3325 17.0312 44.7884 23.8546C25.8487 31.1948 12.0925 50.7344 7.90581 71.4112C-0.467521 114.212 19.5687 154.428 51.9655 178H197.303C246.845 148.949 251.929 102.116 235.78 75.8567Z" fill="#E2F0D4"/>
<path d="M237.751 180H12.9204C12.7087 180 12.0296 179.853 12.0296 179C12.0296 178.078 12.7087 178 12.9204 178H237.751C237.963 178 238.606 178.174 238.606 179C238.606 179.826 238.069 180 237.751 180Z" fill="#1D477A"/>
<path d="M149.879 58.5262H100.756C92.3158 58.5262 85.393 51.582 85.393 43.1159V36.2669C85.393 27.8008 92.3158 20.8567 100.756 20.8567H149.879C158.319 20.8567 165.242 27.8008 165.242 36.2669V43.1159C165.242 51.582 158.319 58.5262 149.879 58.5262ZM100.756 29.4179C97.0575 29.4179 93.928 32.4619 93.928 36.2669V43.1159C93.928 46.8258 96.9626 49.9649 100.756 49.9649H149.879C153.578 49.9649 156.707 46.9209 156.707 43.1159V36.2669C156.707 32.5571 153.673 29.4179 149.879 29.4179H100.756Z" fill="#EF9B3F"/>
<path d="M149.879 59.1918H100.756C91.8417 59.1918 84.6344 51.9623 84.6344 43.0206V36.1716C84.6344 27.2299 91.8417 20.0004 100.756 20.0004H149.879C158.794 20.0004 166.001 27.2299 166.001 36.1716V43.0206C165.906 51.9623 158.699 59.1918 149.879 59.1918ZM100.756 21.5224C92.6952 21.5224 86.0569 28.086 86.0569 36.2667V43.1157C86.0569 51.2013 92.6003 57.8601 100.756 57.8601H149.879C157.94 57.8601 164.578 51.2965 164.578 43.1157V36.2667C164.578 28.1811 158.035 21.5224 149.879 21.5224H100.756ZM149.879 50.6306H100.756C96.5833 50.6306 93.2642 47.2061 93.2642 43.1157V36.2667C93.2642 32.0812 96.6781 28.7519 100.756 28.7519H149.879C154.052 28.7519 157.371 32.1764 157.371 36.2667V43.1157C157.371 47.3012 153.957 50.6306 149.879 50.6306ZM100.756 30.1787C97.4368 30.1787 94.6866 32.9374 94.6866 36.2667V43.1157C94.6866 46.4451 97.4368 49.2037 100.756 49.2037H149.879C153.198 49.2037 155.949 46.4451 155.949 43.1157V36.2667C155.949 32.9374 153.198 30.1787 149.879 30.1787H100.756Z" fill="#1D477A"/>
<path d="M206.779 179.24H43.8563C39.9682 179.24 36.8387 176.196 36.8387 172.2V52.4382C36.8387 48.538 39.8734 45.3989 43.8563 45.3989H206.779C210.667 45.3989 213.796 48.4429 213.796 52.4382V172.296C213.702 176.196 210.667 179.24 206.779 179.24Z" fill="#EF9B3F"/>
<path d="M206.779 180H43.8563C39.5889 180 36.0801 176.481 36.0801 172.2V52.4378C36.0801 48.1572 39.5889 44.6376 43.8563 44.6376H206.779C211.046 44.6376 214.555 48.1572 214.555 52.4378V172.295C214.46 176.576 211.046 180 206.779 180ZM43.8563 46.1596C40.3475 46.1596 37.5026 49.0133 37.5026 52.5329V172.295C37.5026 175.815 40.3475 177.885 43.8563 177.885H206.779C210.193 177.885 213.038 175.91 213.133 172.39V52.5329C213.133 49.0133 210.288 46.1596 206.779 46.1596H43.8563Z" fill="#1D477A"/>
<path d="M38.6405 47.7771L59.2192 99.8104C61.9694 106.85 68.8922 111.606 76.4788 111.606H125.981" fill="#EF9B3F"/>
<path d="M125.887 112.176H76.3839C68.5128 112.176 61.3055 107.23 58.4606 99.9053L37.9767 47.9671L39.3044 47.3964L59.7882 99.4297C62.4435 106.184 69.0818 110.75 76.3839 110.75H125.887V112.176Z" fill="#1D477A"/>
<path d="M211.995 47.7771L191.416 99.8104C188.666 106.85 181.743 111.606 174.156 111.606H124.654" fill="#EF9B3F"/>
<path d="M174.251 112.176H124.749V110.75H174.251C181.553 110.75 188.192 106.184 190.847 99.4297L211.426 47.3964L212.753 47.9671L192.175 100C189.235 107.325 182.028 112.176 174.251 112.176Z" fill="#1D477A"/>
<path d="M146.845 126.921H104.454C102.273 126.921 100.377 125.113 100.377 122.83V100.476C100.377 98.2882 102.178 96.3857 104.454 96.3857H146.845C149.026 96.3857 150.922 98.1931 150.922 100.476V122.926C150.922 125.113 149.026 126.921 146.845 126.921Z" fill="#EF9B3F"/>
<path d="M146.845 127.682H104.454C101.799 127.682 99.7128 125.494 99.7128 122.926V100.571C99.7128 97.9077 101.894 95.8149 104.454 95.8149H146.845C149.5 95.8149 151.586 98.0028 151.586 100.571V123.021C151.681 125.494 149.5 127.682 146.845 127.682ZM104.454 97.1467C102.653 97.1467 101.135 98.6687 101.135 100.476V122.83C101.135 124.638 102.653 126.16 104.454 126.16H146.845C148.646 126.16 150.164 124.733 150.164 122.926V100.476C150.164 98.6687 148.646 97.1467 146.845 97.1467H104.454Z" fill="#1D477A"/>
</svg>
