<svg width="250" height="200" viewBox="0 0 250 200" fill="none" xmlns="http://www.w3.org/2000/svg">
<path d="M69.007 61.4265L63.0469 62.1564C63.0469 62.1564 60.6117 62.1564 60.5643 64.1281C60.5169 66.0998 59.8062 70.0052 59.8062 70.0052L65.5389 74.868L69.7366 68.1568L69.007 61.4265Z" fill="#1D477A"/>
<path d="M145.626 130.882V121.507L141.495 105.478H203.503V130.882H145.626Z" fill="#FACC00"/>
<path d="M203.029 105.952V130.408H146.1V121.441L142.111 105.942H203.029V105.952ZM203.977 105.004H203.029H142.111H140.888L141.192 106.189L145.152 121.564V130.408V131.356H146.1H203.029H203.977V130.408V105.952V105.004Z" fill="#1D477A"/>
<path d="M136.842 80.5115L124.619 76.0562H67.3962L59.4841 79.1559L64.8378 70.8711L78.8142 40.5945H155.973L146.47 80.5115H136.842Z" fill="#FACC00"/>
<path d="M155.367 41.0683L146.09 80.0373H136.918L124.695 75.5821H67.3109L60.678 78.1699L65.2357 71.1269L79.1174 41.0683H155.367ZM156.57 40.1204H155.367H79.1174H78.511L78.2551 40.6702L64.4019 70.6719L59.8821 77.6675L58.2902 80.1321L61.0286 79.061L67.4909 76.5395H124.543L136.615 80.9379L136.776 80.9947H136.947H146.119H146.867L147.038 80.2648L156.315 41.2958L156.57 40.1204Z" fill="#1D477A"/>
<path d="M141.495 80.5115L152.107 40.5945H230.48C231.143 40.5945 231.683 41.1158 231.702 41.7889L232.507 80.5115H141.495Z" fill="#FACC00"/>
<path d="M230.48 41.0683C230.887 41.0683 231.219 41.3906 231.219 41.7982L232.015 80.0373H142.111L152.467 41.0683H230.48ZM230.48 40.1204H152.467H151.738L151.548 40.8218L141.192 79.7909L140.879 80.9853H142.111H232.015H232.981L232.962 80.0184L232.166 41.7792C232.147 40.8692 231.389 40.1204 230.48 40.1204Z" fill="#1D477A"/>
<path d="M16.7115 80.5107C15.7924 80.5107 15.0343 79.7524 15.0343 78.8234V77.3921C15.0343 76.5484 15.6597 75.828 16.4841 75.7142L64.4966 70.6618C64.5535 70.6523 64.6293 70.6523 64.7051 70.6523H136.141C136.662 70.6523 137.136 70.8893 137.458 71.2969C137.78 71.714 137.894 72.2448 137.761 72.7567L136.122 79.2405C135.933 79.9894 135.269 80.5107 134.502 80.5107H16.7115Z" fill="#FACC00"/>
<path d="M136.141 71.1261C136.928 71.1261 137.496 71.875 137.307 72.6428L135.667 79.1266C135.535 79.6669 135.051 80.0366 134.502 80.0366H16.7115C16.0482 80.0366 15.5081 79.4963 15.5081 78.8233V77.3919C15.5081 76.7852 15.9535 76.2639 16.5504 76.188L64.544 71.1356C64.6009 71.1261 64.6482 71.1261 64.7051 71.1261H136.141ZM136.141 70.1782H64.7051C64.6103 70.1782 64.5156 70.1877 64.4208 70.1972L16.4557 75.2401C15.366 75.3823 14.57 76.3113 14.57 77.3919V78.8233C14.57 80.0176 15.5365 80.9845 16.721 80.9845H134.521C135.506 80.9845 136.359 80.3115 136.605 79.3541L138.245 72.8703C138.406 72.2163 138.264 71.5337 137.856 71.0029C137.42 70.4816 136.804 70.1782 136.141 70.1782Z" fill="#1D477A"/>
<path d="M148.071 41.0659L140.244 68.641H68.9691L81.401 41.0659H148.071Z" fill="white"/>
<path fill-rule="evenodd" clip-rule="evenodd" d="M81.0798 40.5698H148.728L140.62 69.1371H68.2005L81.0798 40.5698ZM81.7222 41.5621L69.7376 68.1449H139.868L147.414 41.5621H81.7222Z" fill="#1D477A"/>
<path d="M16.7494 107.878C12.3812 107.878 8.81837 104.323 8.81837 99.9435V87.4973C8.81837 83.1274 12.3717 79.5632 16.7494 79.5632H228.31C232.678 79.5632 236.241 83.1179 236.241 87.4973V99.9435C236.241 104.313 232.687 107.878 228.31 107.878H16.7494Z" fill="#FACC00"/>
<path d="M228.31 80.037C232.422 80.037 235.767 83.3737 235.767 87.4972V99.9434C235.767 104.057 232.432 107.404 228.31 107.404H16.7494C12.637 107.404 9.29216 104.067 9.29216 99.9434V87.4972C9.29216 83.3832 12.6275 80.037 16.7494 80.037H228.31ZM228.31 79.0891H16.7494C12.1159 79.0891 8.3446 82.8618 8.3446 87.4972V99.9434C8.3446 104.579 12.1159 108.351 16.7494 108.351H228.31C232.943 108.351 236.715 104.579 236.715 99.9434V87.4972C236.715 82.8618 232.943 79.0891 228.31 79.0891Z" fill="#1D477A"/>
<path d="M96.3155 130.41L101.735 139.775L144.176 139.131C144.176 139.131 146.034 123.026 144.48 115.215C142.926 107.404 143.551 101.081 134.066 101.081C124.581 101.081 115.267 102.171 115.267 102.171L107.345 108.361L96.3155 130.41Z" fill="#17375E"/>
<path d="M107.715 162.722C117.516 162.722 125.462 151.107 125.462 136.778C125.462 122.449 117.516 110.833 107.715 110.833C97.9128 110.833 89.9669 122.449 89.9669 136.778C89.9669 151.107 97.9128 162.722 107.715 162.722Z" fill="#3F69A5"/>
<path fill-rule="evenodd" clip-rule="evenodd" d="M95.5753 118.712C92.427 123.315 90.4637 129.7 90.4637 136.778C90.4637 143.856 92.427 150.241 95.5753 154.844C98.7253 159.449 103.026 162.226 107.715 162.226C112.403 162.226 116.704 159.449 119.854 154.844C123.002 150.241 124.965 143.856 124.965 136.778C124.965 129.7 123.002 123.315 119.854 118.712C116.704 114.107 112.403 111.329 107.715 111.329C103.026 111.329 98.7253 114.107 95.5753 118.712ZM94.7547 118.152C98.0281 113.367 102.601 110.337 107.715 110.337C112.828 110.337 117.401 113.367 120.674 118.152C123.949 122.94 125.959 129.527 125.959 136.778C125.959 144.029 123.949 150.616 120.674 155.403C117.401 160.189 112.828 163.219 107.715 163.219C102.601 163.219 98.0281 160.189 94.7547 155.403C91.4797 150.616 89.47 144.029 89.47 136.778C89.47 129.527 91.4797 122.94 94.7547 118.152Z" fill="#3F69A5"/>
<path d="M121.734 110.833L107.307 110.494V162.722H121.094L121.734 110.833Z" fill="#3F69A5"/>
<path d="M120.611 162.277C132.124 162.277 141.457 150.86 141.457 136.778C141.457 122.695 132.124 111.279 120.611 111.279C109.098 111.279 99.7646 122.695 99.7646 136.778C99.7646 150.86 109.098 162.277 120.611 162.277Z" fill="#3F69A5"/>
<path d="M120.611 162.722C108.908 162.722 99.395 151.082 99.395 136.778C99.395 122.473 108.908 110.833 120.611 110.833C132.313 110.833 141.826 122.473 141.826 136.778C141.826 151.082 132.313 162.722 120.611 162.722ZM120.611 111.734C109.316 111.734 100.134 122.966 100.134 136.778C100.134 150.589 109.325 161.822 120.611 161.822C131.906 161.822 141.087 150.589 141.087 136.778C141.097 122.976 131.906 111.734 120.611 111.734Z" fill="#1D477A"/>
<path d="M120.611 151.271C127.152 151.271 132.455 144.782 132.455 136.777C132.455 128.773 127.152 122.284 120.611 122.284C114.069 122.284 108.766 128.773 108.766 136.777C108.766 144.782 114.069 151.271 120.611 151.271Z" fill="white"/>
<path d="M120.611 150.124C114.594 150.124 109.695 144.143 109.695 136.778C109.695 129.422 114.594 123.431 120.611 123.431C126.628 123.431 131.527 129.412 131.527 136.778C131.527 144.143 126.628 150.124 120.611 150.124ZM120.611 124.341C115.001 124.341 110.434 129.924 110.434 136.787C110.434 143.65 115.001 149.233 120.611 149.233C126.22 149.233 130.787 143.65 130.787 136.787C130.787 129.924 126.22 124.341 120.611 124.341Z" fill="#1D477A"/>
<path d="M120.611 139.584C121.877 139.584 122.904 138.327 122.904 136.778C122.904 135.228 121.877 133.972 120.611 133.972C119.344 133.972 118.318 135.228 118.318 136.778C118.318 138.327 119.344 139.584 120.611 139.584Z" fill="#1D477A"/>
<path d="M26.4145 163.009C36.2162 163.009 44.1621 151.394 44.1621 137.065C44.1621 122.736 36.2162 111.12 26.4145 111.12C16.6127 111.12 8.66678 122.736 8.66678 137.065C8.66678 151.394 16.6127 163.009 26.4145 163.009Z" fill="#17375E"/>
<path d="M39.7844 111.12H25.9975V163.009H39.7844V111.12Z" fill="#17375E"/>
<path d="M39.3107 162.564C50.8237 162.564 60.1568 151.147 60.1568 137.065C60.1568 122.982 50.8237 111.565 39.3107 111.565C27.7976 111.565 18.4645 122.982 18.4645 137.065C18.4645 151.147 27.7976 162.564 39.3107 162.564Z" fill="#3F69A5"/>
<path d="M39.3107 151.558C45.8522 151.558 51.1551 145.069 51.1551 137.065C51.1551 129.06 45.8522 122.571 39.3107 122.571C32.7692 122.571 27.4662 129.06 27.4662 137.065C27.4662 145.069 32.7692 151.558 39.3107 151.558Z" fill="white"/>
<path d="M39.3106 151.71C32.7062 151.71 27.343 145.141 27.343 137.074C27.343 128.998 32.7157 122.438 39.3106 122.438C45.9056 122.438 51.2783 129.007 51.2783 137.074C51.2783 145.141 45.9056 151.71 39.3106 151.71ZM39.3106 122.723C32.8483 122.723 27.5799 129.159 27.5799 137.065C27.5799 144.97 32.8389 151.407 39.3106 151.407C45.7824 151.407 51.0414 144.97 51.0414 137.065C51.0319 129.159 45.773 122.723 39.3106 122.723Z" fill="#1D477A"/>
<path d="M39.3107 150.411C33.2937 150.411 28.3949 144.43 28.3949 137.065C28.3949 129.709 33.2937 123.718 39.3107 123.718C45.3276 123.718 50.2265 129.699 50.2265 137.065C50.217 144.421 45.3276 150.411 39.3107 150.411ZM39.3107 124.619C33.7011 124.619 29.1339 130.202 29.1339 137.065C29.1339 143.928 33.7011 149.511 39.3107 149.511C44.9202 149.511 49.4874 143.928 49.4874 137.065C49.4874 130.202 44.9202 124.619 39.3107 124.619Z" fill="#1D477A"/>
<path d="M39.3107 139.871C40.5771 139.871 41.6037 138.614 41.6037 137.065C41.6037 135.515 40.5771 134.259 39.3107 134.259C38.0442 134.259 37.0176 135.515 37.0176 137.065C37.0176 138.614 38.0442 139.871 39.3107 139.871Z" fill="#1D477A"/>
<path d="M12.0874 83.7905H89.351C90.3364 83.7905 91.1324 84.5868 91.1324 85.5726V97.4501C91.1324 98.1989 90.6681 98.872 89.9669 99.1279L76.7201 103.981C76.5306 104.048 76.3221 104.086 76.1136 104.086H19.1278C18.7961 104.086 18.4645 103.991 18.1802 103.811L11.1588 99.4218C10.6377 99.0995 10.325 98.5307 10.325 97.9146L10.306 85.5821C10.306 84.5963 11.102 83.7905 12.0874 83.7905Z" fill="#1D477A"/>
<path fill-rule="evenodd" clip-rule="evenodd" d="M10.8029 85.5821C10.8029 85.5823 10.8029 85.582 10.8029 85.5821L10.8219 97.9138C10.8219 98.3614 11.0482 98.7698 11.4205 99L11.4225 99.0013L18.4464 103.392C18.6505 103.521 18.8897 103.589 19.1278 103.589H76.1136C76.2621 103.589 76.4139 103.562 76.5526 103.514C76.5536 103.514 76.5546 103.513 76.5557 103.513L89.7957 98.6622C90.2974 98.479 90.6355 97.9944 90.6355 97.4501V85.5727C90.6355 84.8599 90.0611 84.2867 89.351 84.2867H12.0874C11.3808 84.2867 10.8031 84.8661 10.8029 85.5821ZM9.80917 85.5821C9.80917 84.3266 10.8233 83.2944 12.0874 83.2944H89.351C90.6117 83.2944 91.6292 84.3137 91.6292 85.5727V97.4501C91.6292 98.4033 91.0384 99.2648 90.138 99.5937M90.138 99.5937L76.8912 104.447L76.8845 104.449C76.645 104.533 76.381 104.582 76.1136 104.582H19.1278C18.703 104.582 18.2795 104.461 17.9153 104.23C17.9149 104.23 17.9144 104.23 17.914 104.23L10.8972 99.8436C10.8969 99.8434 10.8975 99.8437 10.8972 99.8436C10.2277 99.4292 9.82826 98.6993 9.82813 97.915" fill="#1D477A"/>
<path d="M13.0445 108.349H6.49687V122.084L16.7494 138.407H74.408L100.579 129.393L109.875 108.349H13.0445Z" fill="#1D477A"/>
<path fill-rule="evenodd" clip-rule="evenodd" d="M6 108.349C6 108.075 6.22246 107.853 6.49687 107.853H109.875C110.043 107.853 110.199 107.937 110.291 108.078C110.383 108.218 110.397 108.395 110.33 108.549L101.034 129.593C100.978 129.719 100.872 129.816 100.742 129.862L74.5701 138.876C74.5179 138.894 74.4632 138.903 74.408 138.903H16.7494C16.5784 138.903 16.4193 138.816 16.3285 138.671L6.07593 122.348C6.02632 122.269 6 122.177 6 122.084V108.349ZM6.99374 108.845V121.941L17.0243 137.911H74.3247L100.212 128.994L109.113 108.845H6.99374Z" fill="#1D477A"/>
<path d="M61.7392 98.4347H61.1897C59.5125 98.4347 58.1575 97.0792 58.1575 95.4014V88.2541C58.1575 86.5762 59.5125 85.2207 61.1897 85.2207H61.7392C63.4164 85.2207 64.7714 86.5762 64.7714 88.2541V95.4014C64.7714 97.0792 63.4164 98.4347 61.7392 98.4347Z" fill="#17375E"/>
<path d="M62.2888 98.437C60.9149 98.437 59.8062 97.3279 59.8062 95.9534V87.716C59.8062 86.3415 60.9149 85.2324 62.2888 85.2324C63.6628 85.2324 64.7714 86.3415 64.7714 87.716V95.9534C64.7714 97.3279 63.6628 98.437 62.2888 98.437Z" fill="#17375E"/>
<path d="M53.1355 98.4347H52.5006C50.8234 98.4347 49.4684 97.0792 49.4684 95.4014V88.2541C49.4684 86.5762 50.8234 85.2207 52.5006 85.2207H53.1355C54.8127 85.2207 56.1676 86.5762 56.1676 88.2541V95.4014C56.1771 97.0792 54.8127 98.4347 53.1355 98.4347Z" fill="#17375E"/>
<path d="M53.2113 98.437C51.8373 98.437 50.7287 97.3279 50.7287 95.9534V87.716C50.7287 86.3415 51.8373 85.2324 53.2113 85.2324C54.5852 85.2324 55.6938 86.3415 55.6938 87.716V95.9534C55.6938 97.3279 54.5852 98.437 53.2113 98.437Z" fill="#17375E"/>
<path d="M43.1767 98.437C41.8027 98.437 40.6941 97.3279 40.6941 95.9534V87.716C40.6941 86.3415 41.8027 85.2324 43.1767 85.2324C44.5506 85.2324 45.6593 86.3415 45.6593 87.716V95.9534C45.6687 97.3279 44.5506 98.437 43.1767 98.437Z" fill="#17375E"/>
<path d="M44.1337 98.437C42.7598 98.437 41.6511 97.3279 41.6511 95.9534V87.716C41.6511 86.3415 42.7598 85.2324 44.1337 85.2324C45.5077 85.2324 46.6163 86.3415 46.6163 87.716V95.9534C46.6163 97.3279 45.5077 98.437 44.1337 98.437Z" fill="#17375E"/>
<path d="M34.0991 98.437C32.7251 98.437 31.6165 97.3279 31.6165 95.9534V87.716C31.6165 86.3415 32.7251 85.2324 34.0991 85.2324C35.473 85.2324 36.5817 86.3415 36.5817 87.716V95.9534C36.5912 97.3279 35.473 98.437 34.0991 98.437Z" fill="#17375E"/>
<path d="M35.0561 98.437C33.6822 98.437 32.5735 97.3279 32.5735 95.9534V87.716C32.5735 86.3415 33.6822 85.2324 35.0561 85.2324C36.4301 85.2324 37.5387 86.3415 37.5387 87.716V95.9534C37.5387 97.3279 36.4301 98.437 35.0561 98.437Z" fill="#17375E"/>
<path d="M25.5048 98.437C24.1308 98.437 23.0222 97.3279 23.0222 95.9534V87.716C23.0222 86.3415 24.1308 85.2324 25.5048 85.2324C26.8787 85.2324 27.9874 86.3415 27.9874 87.716V95.9534C27.9874 97.3279 26.8787 98.437 25.5048 98.437Z" fill="#17375E"/>
<path d="M26.4523 98.437C25.0784 98.437 23.9698 97.3279 23.9698 95.9534V87.716C23.9698 86.3415 25.0784 85.2324 26.4523 85.2324C27.8263 85.2324 28.9349 86.3415 28.9349 87.716V95.9534C28.9444 97.3279 27.8263 98.437 26.4523 98.437Z" fill="#17375E"/>
<path d="M75.3461 100.102C79.3495 100.102 82.5949 96.9864 82.5949 93.1438C82.5949 89.3011 79.3495 86.186 75.3461 86.186C71.3427 86.186 68.0973 89.3011 68.0973 93.1438C68.0973 96.9864 71.3427 100.102 75.3461 100.102Z" fill="#17375E"/>
<path d="M76.4832 100.102C79.8586 100.102 82.5949 96.9864 82.5949 93.1438C82.5949 89.3011 79.8586 86.186 76.4832 86.186C73.1078 86.186 70.3715 89.3011 70.3715 93.1438C70.3715 96.9864 73.1078 100.102 76.4832 100.102Z" fill="white"/>
<path fill-rule="evenodd" clip-rule="evenodd" d="M76.4832 86.6822C73.4414 86.6822 70.8683 89.512 70.8683 93.1438C70.8683 96.7756 73.4414 99.6054 76.4832 99.6054C79.525 99.6054 82.098 96.7756 82.098 93.1438C82.098 89.512 79.525 86.6822 76.4832 86.6822ZM69.8746 93.1438C69.8746 89.0903 72.7741 85.6899 76.4832 85.6899C80.1922 85.6899 83.0918 89.0903 83.0918 93.1438C83.0918 97.1973 80.1922 100.598 76.4832 100.598C72.7741 100.598 69.8746 97.1973 69.8746 93.1438Z" fill="#1D477A"/>
<path d="M17.5927 100.102C19.6808 100.102 21.3735 96.9864 21.3735 93.1438C21.3735 89.3011 19.6808 86.186 17.5927 86.186C15.5047 86.186 13.812 89.3011 13.812 93.1438C13.812 96.9864 15.5047 100.102 17.5927 100.102Z" fill="#17375E"/>
<path d="M18.654 100.102C20.1559 100.102 21.3735 96.9864 21.3735 93.1438C21.3735 89.3011 20.1559 86.186 18.654 86.186C17.1521 86.186 15.9345 89.3011 15.9345 93.1438C15.9345 96.9864 17.1521 100.102 18.654 100.102Z" fill="white"/>
<path fill-rule="evenodd" clip-rule="evenodd" d="M17.1939 88.4043C16.7294 89.5927 16.4314 91.2682 16.4314 93.1438C16.4314 95.0194 16.7294 96.6949 17.1939 97.8833C17.4267 98.479 17.6917 98.9274 17.9606 99.2183C18.229 99.5088 18.4638 99.6054 18.654 99.6054C18.8441 99.6054 19.0789 99.5088 19.3474 99.2183C19.6162 98.9274 19.8812 98.479 20.1141 97.8833C20.5786 96.6949 20.8766 95.0194 20.8766 93.1438C20.8766 91.2682 20.5786 89.5927 20.1141 88.4043C19.8812 87.8086 19.6162 87.3602 19.3474 87.0693C19.0789 86.7788 18.8441 86.6822 18.654 86.6822C18.4638 86.6822 18.229 86.7788 17.9606 87.0693C17.6917 87.3602 17.4267 87.8086 17.1939 88.4043ZM17.2303 86.3964C17.6126 85.9827 18.0932 85.6899 18.654 85.6899C19.2148 85.6899 19.6954 85.9827 20.0777 86.3964C20.4595 86.8096 20.7805 87.3802 21.0398 88.0436C21.5596 89.3734 21.8703 91.1768 21.8703 93.1438C21.8703 95.1108 21.5596 96.9142 21.0398 98.244C20.7805 98.9074 20.4595 99.478 20.0777 99.8912C19.6954 100.305 19.2148 100.598 18.654 100.598C18.0932 100.598 17.6126 100.305 17.2303 99.8912C16.8484 99.478 16.5274 98.9074 16.2682 98.244C15.7484 96.9142 15.4376 95.1108 15.4376 93.1438C15.4376 91.1768 15.7484 89.3734 16.2682 88.0436C16.5274 87.3802 16.8484 86.8096 17.2303 86.3964Z" fill="#1D477A"/>
<path d="M86.2335 90.4813C84.8311 90.4813 83.6941 89.3437 83.6941 87.9408C83.6941 86.5379 84.8311 85.4004 86.2335 85.4004C87.6359 85.4004 88.7729 86.5379 88.7729 87.9408C88.7824 89.3437 87.6359 90.4813 86.2335 90.4813Z" fill="#EB820F"/>
<path d="M86.2335 85.8742C87.3801 85.8742 88.2992 86.8032 88.2992 87.9407C88.2992 89.0876 87.3706 90.0071 86.2335 90.0071C85.087 90.0071 84.1678 89.0782 84.1678 87.9407C84.1678 86.7937 85.0964 85.8742 86.2335 85.8742ZM86.2335 84.9263C84.5658 84.9263 83.2203 86.2818 83.2203 87.9407C83.2203 89.609 84.5753 90.9551 86.2335 90.9551C87.9012 90.9551 89.2467 89.5995 89.2467 87.9407C89.2562 86.2723 87.9012 84.9263 86.2335 84.9263Z" fill="#1D477A"/>
<path fill-rule="evenodd" clip-rule="evenodd" d="M139.169 68.6433C139.169 68.3693 139.392 68.1472 139.666 68.1472H144.555C144.83 68.1472 145.052 68.3693 145.052 68.6433C145.052 68.9173 144.83 69.1395 144.555 69.1395H139.666C139.392 69.1395 139.169 68.9173 139.169 68.6433Z" fill="#1D477A"/>
<path d="M12.059 90.4813C11.1967 90.4813 10.5524 89.3911 10.5524 87.9408C10.5524 86.4905 11.1967 85.4004 12.059 85.4004C12.9213 85.4004 13.5656 86.4905 13.5656 87.9408C13.5656 89.3911 12.9213 90.4813 12.059 90.4813Z" fill="#EB820F"/>
<path d="M12.059 85.8742C12.6275 85.8742 13.0918 86.8032 13.0918 87.9407C13.0918 89.0876 12.6275 90.0071 12.059 90.0071C11.4905 90.0071 11.0262 89.0782 11.0262 87.9407C11.0262 86.7937 11.4905 85.8742 12.059 85.8742ZM12.059 84.9263C10.9125 84.9263 10.0786 86.1965 10.0786 87.9407C10.0786 89.6848 10.9125 90.9551 12.059 90.9551C13.2055 90.9551 14.0394 89.6848 14.0394 87.9407C14.0394 86.1965 13.2055 84.9263 12.059 84.9263Z" fill="#1D477A"/>
<path fill-rule="evenodd" clip-rule="evenodd" d="M145.603 107.401V80.0349H146.597V107.401H145.603Z" fill="#1D477A"/>
<path d="M141.305 95.0217C139.969 95.0217 138.889 93.941 138.889 92.6045C138.889 91.2679 139.969 90.1873 141.305 90.1873C142.641 90.1873 143.722 91.2679 143.722 92.6045C143.722 93.941 142.641 95.0217 141.305 95.0217Z" fill="#EB820F"/>
<path d="M141.305 90.6611C142.376 90.6611 143.248 91.5331 143.248 92.6043C143.248 93.6754 142.376 94.5475 141.305 94.5475C140.235 94.5475 139.363 93.6754 139.363 92.6043C139.363 91.5331 140.235 90.6611 141.305 90.6611ZM141.305 89.7131C139.713 89.7131 138.415 91.0118 138.415 92.6043C138.415 94.1968 139.713 95.4955 141.305 95.4955C142.897 95.4955 144.195 94.1968 144.195 92.6043C144.195 91.0118 142.897 89.7131 141.305 89.7131Z" fill="#1D477A"/>
<path d="M59.0008 124.256H20.3501C17.678 124.256 15.5081 122.085 15.5081 119.412V118.208C15.5081 115.535 17.678 113.365 20.3501 113.365H59.0008C61.6729 113.365 63.8428 115.535 63.8428 118.208V119.412C63.8428 122.085 61.6729 124.256 59.0008 124.256Z" fill="#17375E"/>
<path d="M224.235 72.7367H195.752C194.634 72.7367 193.733 71.8267 193.733 70.7176V47.74C193.733 46.6215 194.643 45.7209 195.752 45.7209H224.245C225.363 45.7209 226.263 46.631 226.263 47.74V70.7082C226.263 71.8267 225.353 72.7367 224.235 72.7367Z" fill="white"/>
<path fill-rule="evenodd" clip-rule="evenodd" d="M195.752 46.2171C194.917 46.2171 194.23 46.8961 194.23 47.7401V70.7177C194.23 71.5551 194.91 72.2406 195.752 72.2406H224.235C225.078 72.2406 225.766 71.5536 225.766 70.7082V47.7401C225.766 46.9026 225.086 46.2171 224.245 46.2171H195.752ZM193.237 47.7401C193.237 46.3469 194.369 45.2249 195.752 45.2249H224.245C225.64 45.2249 226.76 46.3594 226.76 47.7401V70.7082C226.76 72.0999 225.629 73.2329 224.235 73.2329H195.752C194.357 73.2329 193.237 72.0983 193.237 70.7177V47.7401Z" fill="#1D477A"/>
<path d="M150.866 75.5825H163.421C163.715 75.5825 163.99 75.4592 164.189 75.2507L165.819 73.5255C166.018 73.3169 166.302 73.1937 166.586 73.1937H181.652C182.24 73.1937 182.713 72.7197 182.713 72.132V46.7941C182.713 46.2064 182.24 45.7324 181.652 45.7324H156.921C156.419 45.7324 155.992 46.0832 155.888 46.5666L149.824 74.2933C149.682 74.9568 150.184 75.5825 150.866 75.5825Z" fill="white"/>
<path fill-rule="evenodd" clip-rule="evenodd" d="M155.403 46.4615C155.556 45.7527 156.182 45.2363 156.921 45.2363H181.652C182.515 45.2363 183.21 45.9333 183.21 46.7941V72.1321C183.21 72.9929 182.515 73.6899 181.652 73.6899H166.586C166.441 73.6899 166.286 73.755 166.179 73.8669C166.179 73.8672 166.179 73.8675 166.178 73.8677L164.55 75.5912L164.548 75.593C164.259 75.8959 163.856 76.0786 163.421 76.0786H150.866C149.866 76.0786 149.13 75.1598 149.338 74.1896L149.338 74.1875L155.402 46.4622C155.402 46.462 155.403 46.4618 155.403 46.4615ZM156.921 46.2286C156.656 46.2286 156.429 46.4133 156.374 46.671L156.374 46.6725L150.31 74.3971C150.31 74.3974 150.31 74.3977 150.31 74.398C150.234 74.7545 150.503 75.0864 150.866 75.0864H163.421C163.573 75.0864 163.719 75.0229 163.828 74.9092C163.829 74.909 163.829 74.9088 163.829 74.9085L165.457 73.1851L165.459 73.1833C165.75 72.8786 166.163 72.6976 166.586 72.6976H181.652C181.964 72.6976 182.217 72.4467 182.217 72.1321V46.7941C182.217 46.4795 181.964 46.2286 181.652 46.2286H156.921Z" fill="#1D477A"/>
<path fill-rule="evenodd" clip-rule="evenodd" d="M186.566 41.0659H187.56V79.8703L190.364 83.6241V107.276L192.875 111.897L190.198 130.478L189.215 130.337L191.844 112.081L189.371 107.527V83.9534L186.566 80.1996V41.0659Z" fill="#1D477A"/>
<path d="M93.0559 114.893V121.661C93.0559 122.381 92.5442 123.007 91.8335 123.149L75.602 126.381C74.6639 126.571 73.7921 125.851 73.7921 124.893V114.893C73.7921 114.058 74.4744 113.376 75.3082 113.376H91.5398C92.3736 113.376 93.0559 114.049 93.0559 114.893Z" fill="#17375E"/>
<path d="M93.0559 114.893V121.661C93.0559 122.381 92.5442 123.007 91.8335 123.149L75.602 126.381C74.6639 126.571 73.7921 125.851 73.7921 124.893V114.893C73.7921 114.058 74.4744 113.376 75.3082 113.376H91.5398C92.3736 113.376 93.0559 114.049 93.0559 114.893Z" fill="#17375E"/>
<path d="M22.539 125.016H16.4462L10.7798 132.485L15.5081 140.571L70.362 141.187L76.4832 133.101L66.7329 125.328L22.539 125.016Z" fill="#1D477A"/>
<path fill-rule="evenodd" clip-rule="evenodd" d="M16.0501 124.716C16.144 124.592 16.2906 124.519 16.4462 124.519H22.5425L66.7364 124.832C66.8478 124.833 66.9558 124.871 67.0429 124.941L76.7932 132.713C77.0036 132.881 77.0419 133.186 76.8796 133.4L70.7584 141.486C70.6633 141.612 70.5141 141.685 70.3564 141.683L15.5025 141.067C15.3279 141.065 15.1671 140.972 15.079 140.821L10.3507 132.735C10.2495 132.562 10.2625 132.345 10.3837 132.185L16.0501 124.716ZM16.6931 125.512L11.3761 132.521L15.7952 140.078L70.1168 140.688L75.795 133.187L66.5573 125.823L22.539 125.512H16.6931Z" fill="#1D477A"/>
<path d="M10.7798 113.821V122.751C10.7798 123.187 10.1639 123.367 9.8891 123.007L7.79501 120.286C7.73816 120.21 7.70973 120.125 7.70973 120.03V113.821C7.70973 113.575 7.92767 113.376 8.20246 113.376H10.2966C10.5619 113.376 10.7798 113.575 10.7798 113.821Z" fill="#17375E"/>
<path d="M22.0557 133.993C21.7904 133.993 21.5819 133.785 21.5819 133.519V122.429C21.5819 122.163 21.7904 121.955 22.0557 121.955H54.1588C54.4241 121.955 54.6326 122.163 54.6326 122.429V133.519C54.6326 133.785 54.4241 133.993 54.1588 133.993H22.0557Z" fill="#F2F2F2"/>
<path d="M54.1588 122.429V133.519H22.0557V122.429H54.1588ZM54.1588 121.481H22.0557C21.5346 121.481 21.1082 121.907 21.1082 122.429V133.519C21.1082 134.041 21.5346 134.467 22.0557 134.467H54.1588C54.68 134.467 55.1064 134.041 55.1064 133.519V122.429C55.1064 121.907 54.6895 121.481 54.1588 121.481Z" fill="#1D477A"/>
<path fill-rule="evenodd" clip-rule="evenodd" d="M147.574 83.7906C147.574 83.5166 147.796 83.2944 148.071 83.2944H231.228C231.503 83.2944 231.725 83.5166 231.725 83.7906C231.725 84.0646 231.503 84.2867 231.228 84.2867H148.071C147.796 84.2867 147.574 84.0646 147.574 83.7906Z" fill="#1D477A"/>
<path fill-rule="evenodd" clip-rule="evenodd" d="M145.603 111.992C145.603 111.718 145.826 111.496 146.1 111.496H200.129C200.404 111.496 200.626 111.718 200.626 111.992C200.626 112.266 200.404 112.488 200.129 112.488H146.1C145.826 112.488 145.603 112.266 145.603 111.992Z" fill="#1D477A"/>
<path fill-rule="evenodd" clip-rule="evenodd" d="M176.734 86.752C175.342 86.752 174.209 87.8845 174.209 89.2798V90.1234C174.209 91.5186 175.342 92.6512 176.734 92.6512H181.567C182.96 92.6512 184.093 91.5271 184.093 90.1234V89.2798C184.093 87.8845 182.959 86.752 181.567 86.752H176.734ZM173.215 89.2798C173.215 87.3383 174.791 85.7598 176.734 85.7598H181.567C183.51 85.7598 185.086 87.3383 185.086 89.2798V90.1234C185.086 92.0754 183.509 93.6434 181.567 93.6434H176.734C174.791 93.6434 173.215 92.0649 173.215 90.1234V89.2798Z" fill="#1D477A"/>
<path fill-rule="evenodd" clip-rule="evenodd" d="M173.215 90.19C173.215 89.916 173.437 89.6938 173.712 89.6938H184.59C184.864 89.6938 185.086 89.916 185.086 90.19C185.086 90.464 184.864 90.6861 184.59 90.6861H173.712C173.437 90.6861 173.215 90.464 173.215 90.19Z" fill="#1D477A"/>
<path d="M186.816 95.3277C187.418 95.3277 187.906 94.8396 187.906 94.2376C187.906 93.6355 187.418 93.1475 186.816 93.1475C186.215 93.1475 185.727 93.6355 185.727 94.2376C185.727 94.8396 186.215 95.3277 186.816 95.3277Z" fill="#F2F2F2"/>
<path fill-rule="evenodd" clip-rule="evenodd" d="M186.816 93.6434C186.49 93.6434 186.224 93.9084 186.224 94.2374C186.224 94.5663 186.49 94.8313 186.816 94.8313C187.143 94.8313 187.409 94.5663 187.409 94.2374C187.409 93.9084 187.143 93.6434 186.816 93.6434ZM185.23 94.2374C185.23 93.3622 185.939 92.6511 186.816 92.6511C187.693 92.6511 188.403 93.3622 188.403 94.2374C188.403 95.1125 187.693 95.8236 186.816 95.8236C185.939 95.8236 185.23 95.1125 185.23 94.2374Z" fill="#1D477A"/>
<path d="M203.029 130.407H146.1V139.118H203.029V130.407Z" fill="#1D477A"/>
<path d="M203.029 134.767H146.1V139.128H203.029V134.767Z" fill="#17375E"/>
<path opacity="0.4" d="M187.593 82.8435H147.493V80.7676H186.248L187.593 82.8435Z" fill="white"/>
<path opacity="0.4" d="M189.65 80.7676L191.118 82.8435H234.109C234.109 82.8435 233.483 80.7676 230.48 80.7676C227.476 80.7676 189.65 80.7676 189.65 80.7676Z" fill="white"/>
<path opacity="0.4" d="M144.489 108.958L145.323 111.024H189.706L188.835 108.958H144.489Z" fill="white"/>
<path opacity="0.4" d="M192.36 108.958L193.07 111.024H198.263L197.903 108.958H192.36Z" fill="white"/>
<path fill-rule="evenodd" clip-rule="evenodd" d="M95.9131 108.169L89.5645 99.4193L90.3692 98.8372L96.7178 107.586L95.9131 108.169Z" fill="#1D477A"/>
<path opacity="0.56" d="M144.489 80.7676V83.2511H93.5375L90.8628 82.0094H13.1446C13.1446 82.0094 12.9955 80.7676 16.6396 80.7676C20.2836 80.7676 144.489 80.7676 144.489 80.7676Z" fill="white"/>
<path opacity="0.56" d="M132.37 71.9602C132.37 71.9602 90.2037 75.4865 84.3479 75.5908C78.492 75.695 26.4902 76.0079 26.4902 76.0079L20.9092 75.9794C20.9092 75.9794 16.1051 75.9605 16.1051 77.3065V78.5483H84.3479C84.3479 78.5483 100.409 77.771 105.639 77.3065C110.87 76.842 133.147 74.349 133.147 74.349L135.734 74.0362C135.734 74.0267 137.345 71.1829 132.37 71.9602Z" fill="white"/>
<path d="M140.888 76.3209H138.567C138.368 76.3209 138.197 76.1598 138.197 75.9512C138.197 75.7522 138.358 75.5815 138.567 75.5815H140.888C141.087 75.5815 141.258 75.7427 141.258 75.9512C141.258 76.1598 141.087 76.3209 140.888 76.3209Z" fill="#1D477A"/>
<path d="M140.453 77.9486H138.131C137.932 77.9486 137.761 77.7875 137.761 77.5789C137.761 77.3799 137.923 77.2092 138.131 77.2092H140.453C140.652 77.2092 140.822 77.3704 140.822 77.5789C140.822 77.7875 140.652 77.9486 140.453 77.9486Z" fill="#1D477A"/>
<path d="M97.1683 108.512L95.2732 105.45L100.977 97.9709C100.977 97.9709 104.085 93.9517 112.168 93.9422C120.251 93.9327 132.057 93.9422 132.057 93.9422C132.057 93.9422 140.244 93.6673 142.622 101.545C145.001 109.422 147.379 121.204 146.09 139.12H144.176C144.176 139.12 145.418 116.522 140.813 107.393C138.974 103.763 135.317 103.725 135.317 103.725L117.133 103.497L109.865 108.351L97.1683 108.512Z" fill="#1D477A"/>
<path opacity="0.4" d="M77.6581 107.212C77.9235 107.22 90.0237 102.388 90.0237 102.388L94.8089 107.472L77.6581 107.212Z" fill="white"/>
<path d="M82.8886 122.246C84.7412 122.246 86.243 120.744 86.243 118.891C86.243 117.037 84.7412 115.535 82.8886 115.535C81.0361 115.535 79.5343 117.037 79.5343 118.891C79.5343 120.744 81.0361 122.246 82.8886 122.246Z" fill="white"/>
<path d="M9.29216 119.735C9.86781 119.735 10.3345 118.551 10.3345 117.091C10.3345 115.63 9.86781 114.446 9.29216 114.446C8.71651 114.446 8.24985 115.63 8.24985 117.091C8.24985 118.551 8.71651 119.735 9.29216 119.735Z" fill="white"/>
<path opacity="0.4" d="M107.468 109.574L106.161 112.579H8.24985V109.574H107.468Z" fill="white"/>
<path d="M151.131 68.3101L149.824 74.2914C149.824 74.2914 149.464 75.5806 150.857 75.5806C152.259 75.5806 153.425 75.5806 153.425 75.5806L156.533 71.9406L154.827 68.6324C154.827 68.6418 154.363 69.7414 151.131 68.3101Z" fill="#1D477A"/>
<path d="M163.383 73.3817H154.183C153.491 73.3817 152.941 72.8224 152.941 72.1399V62.9356C152.941 62.2436 153.5 61.6938 154.183 61.6938H154.344C154.59 61.6938 154.827 61.618 155.026 61.4853L155.973 60.8597C156.172 60.727 156.419 60.6511 156.656 60.6511H163.393C164.085 60.6511 164.634 61.2104 164.634 61.8929V72.1305C164.634 72.8224 164.075 73.3817 163.383 73.3817Z" fill="#1D477A"/>
<path opacity="0.16" d="M164.312 63.845H153.586V67.7315H164.312V63.845Z" fill="white"/>
<path d="M198.879 130.408H224.055L238.202 122.683V111.023L236.487 107.876L228.566 102.388H213.177L208.837 106.833L198.879 130.408Z" fill="#17375E"/>
<path d="M215.584 162.723C218.279 162.723 227.192 162.723 227.192 162.723V110.918C226.343 110.748 218.559 110.239 215.644 110.239C207.762 110.239 201.314 122.45 201.314 136.779C201.314 151.107 207.703 162.723 215.584 162.723Z" fill="#3F69A5"/>
<path fill-rule="evenodd" clip-rule="evenodd" d="M205.929 118.672C203.394 123.28 201.811 129.681 201.811 136.778C201.811 143.876 203.394 150.276 205.929 154.885C208.474 159.512 211.909 162.227 215.584 162.227C219.259 162.227 222.694 159.512 225.239 154.885C227.774 150.276 229.357 143.876 229.357 136.778C229.357 129.681 227.774 123.28 225.239 118.672C222.694 114.045 219.259 111.33 215.584 111.33C211.909 111.33 208.474 114.045 205.929 118.672ZM205.058 118.194C207.678 113.431 211.378 110.338 215.584 110.338C219.79 110.338 223.49 113.431 226.11 118.194C228.74 122.975 230.351 129.547 230.351 136.778C230.351 144.01 228.74 150.582 226.11 155.363C223.49 160.126 219.79 163.219 215.584 163.219C211.378 163.219 207.678 160.126 205.058 155.363C202.428 150.582 200.817 144.01 200.817 136.778C200.817 129.547 202.428 122.975 205.058 118.194Z" fill="#3F69A5"/>
<path d="M225.95 162.277C235.208 162.277 242.713 150.861 242.713 136.778C242.713 122.695 235.208 111.279 225.95 111.279C216.693 111.279 209.188 122.695 209.188 136.778C209.188 150.861 216.693 162.277 225.95 162.277Z" fill="#3F69A5"/>
<path d="M225.95 162.723C216.541 162.723 208.894 151.082 208.894 136.778C208.894 122.474 216.551 110.833 225.95 110.833C235.36 110.833 243.006 122.474 243.006 136.778C243.006 151.082 235.36 162.723 225.95 162.723ZM225.95 111.734C216.873 111.734 209.482 122.967 209.482 136.778C209.482 150.589 216.873 161.822 225.95 161.822C235.028 161.822 242.419 150.589 242.419 136.778C242.419 122.976 235.037 111.734 225.95 111.734Z" fill="#1D477A"/>
<path d="M225.95 151.271C231.21 151.271 235.473 144.782 235.473 136.778C235.473 128.773 231.21 122.284 225.95 122.284C220.691 122.284 216.427 128.773 216.427 136.778C216.427 144.782 220.691 151.271 225.95 151.271Z" fill="white"/>
<path d="M225.95 151.424C220.644 151.424 216.323 144.855 216.323 136.788C216.323 128.711 220.644 122.152 225.95 122.152C231.257 122.152 235.577 128.721 235.577 136.788C235.577 144.855 231.257 151.424 225.95 151.424ZM225.95 122.446C220.748 122.446 216.522 128.882 216.522 136.788C216.522 144.693 220.748 151.13 225.95 151.13C231.152 151.13 235.378 144.693 235.378 136.788C235.378 128.873 231.152 122.446 225.95 122.446Z" fill="#1D477A"/>
<path d="M225.95 150.125C221.118 150.125 217.176 144.143 217.176 136.778C217.176 129.422 221.108 123.431 225.95 123.431C230.783 123.431 234.725 129.413 234.725 136.778C234.725 144.143 230.792 150.125 225.95 150.125ZM225.95 124.341C221.44 124.341 217.773 129.925 217.773 136.788C217.773 143.651 221.44 149.234 225.95 149.234C230.461 149.234 234.128 143.651 234.128 136.788C234.137 129.925 230.461 124.341 225.95 124.341Z" fill="#1D477A"/>
<path d="M225.95 139.584C226.971 139.584 227.798 138.328 227.798 136.778C227.798 135.229 226.971 133.972 225.95 133.972C224.93 133.972 224.103 135.229 224.103 136.778C224.103 138.328 224.93 139.584 225.95 139.584Z" fill="#1D477A"/>
<path d="M197.268 130.407L200.167 102.386C200.167 102.386 201.181 95.7889 206.469 95.6372C211.756 95.4856 226.481 95.6372 226.481 95.6372C226.481 95.6372 234.564 98.699 235.492 105.951V111.989H232.015C232.015 111.989 231.598 103.259 226.633 103.192C221.658 103.126 214.513 103.353 214.513 103.353C214.513 103.353 209.643 102.936 208.714 109.989C207.786 117.041 205.758 130.407 205.758 130.407H197.268Z" fill="#1D477A"/>
<path opacity="0.4" d="M192.179 71.2285C192.179 71.2285 192.852 74.186 195.723 74.186C198.594 74.186 223.382 74.186 223.382 74.186C223.382 74.186 227.211 73.8732 227.789 71.2285C227.789 71.2285 228.461 76.5938 223.581 76.5938C218.702 76.5938 195.638 76.5938 195.638 76.5938C195.638 76.5938 191.317 77.0582 192.179 71.2285Z" fill="white"/>
<path opacity="0.4" d="M165.108 76.2538L182.173 75.9504V74.4148H166.633L165.108 76.2538Z" fill="white"/>
<path opacity="0.4" d="M163.611 76.8218H149.805V78.1678H163.611V76.8218Z" fill="white"/>
<path d="M19.9427 124.256C17.498 124.256 15.5176 122.275 15.5176 119.829V117.81C15.5176 115.365 17.498 113.384 19.9427 113.384V124.256Z" fill="#17375E"/>
<path fill-rule="evenodd" clip-rule="evenodd" d="M72.8444 108.842L69.6329 112.405C69.6327 112.405 69.633 112.405 69.6329 112.405C68.9655 113.149 68.5942 114.112 68.5942 115.108V126.407H67.6005V115.108C67.6005 113.866 68.0632 112.668 68.8928 111.743L72.1057 108.178L72.8444 108.842Z" fill="#1D477A"/>
<path fill-rule="evenodd" clip-rule="evenodd" d="M17.0619 108.842L13.8504 112.405C13.8503 112.405 13.8505 112.405 13.8504 112.405C13.183 113.149 12.8117 114.112 12.8117 115.108V130.407H11.818V115.108C11.818 113.866 12.2807 112.668 13.1103 111.743L16.3232 108.178L17.0619 108.842Z" fill="#1D477A"/>
<path fill-rule="evenodd" clip-rule="evenodd" d="M76.4832 90.9612C75.5132 90.9612 74.6206 91.8777 74.6206 93.1477C74.6206 94.4178 75.5132 95.3342 76.4832 95.3342C77.4532 95.3342 78.3457 94.4178 78.3457 93.1477C78.3457 91.8777 77.4532 90.9612 76.4832 90.9612ZM73.6269 93.1477C73.6269 91.4547 74.847 89.969 76.4832 89.969C78.1193 89.969 79.3395 91.4547 79.3395 93.1477C79.3395 94.8408 78.1193 96.3265 76.4832 96.3265C74.847 96.3265 73.6269 94.8408 73.6269 93.1477Z" fill="#1D477A"/>
<path fill-rule="evenodd" clip-rule="evenodd" d="M18.4403 91.589C18.2946 91.9627 18.1938 92.5127 18.1938 93.1451C18.1938 93.7775 18.2946 94.3275 18.4403 94.7012C18.5137 94.8896 18.5889 95.0082 18.6471 95.0713C18.6495 95.0739 18.6518 95.0764 18.654 95.0786C18.6562 95.0764 18.6585 95.0739 18.6609 95.0713C18.719 95.0082 18.7942 94.8896 18.8677 94.7012C19.0133 94.3275 19.1141 93.7775 19.1141 93.1451C19.1141 92.5127 19.0133 91.9627 18.8677 91.589C18.7942 91.4006 18.719 91.2819 18.6609 91.2189C18.6585 91.2163 18.6562 91.2138 18.654 91.2115C18.6518 91.2138 18.6495 91.2163 18.6471 91.2189C18.5889 91.2819 18.5137 91.4006 18.4403 91.589ZM18.6924 91.179C18.6924 91.1791 18.6916 91.1795 18.69 91.1802C18.6916 91.1793 18.6924 91.1789 18.6924 91.179ZM18.618 91.1802C18.6164 91.1795 18.6156 91.1791 18.6156 91.179C18.6156 91.1789 18.6164 91.1793 18.618 91.1802ZM18.6156 95.1112C18.6156 95.1111 18.6164 95.1106 18.618 95.11C18.6164 95.1109 18.6156 95.1113 18.6156 95.1112ZM18.69 95.11C18.6916 95.1106 18.6924 95.1111 18.6924 95.1112C18.6924 95.1113 18.6916 95.1109 18.69 95.11ZM17.9158 90.547C18.0871 90.3611 18.336 90.1938 18.654 90.1938C18.972 90.1938 19.2209 90.3611 19.3921 90.547C19.563 90.7323 19.694 90.9732 19.7937 91.2291C19.9944 91.744 20.1079 92.4216 20.1079 93.1451C20.1079 93.8686 19.9944 94.5462 19.7937 95.0611C19.694 95.3169 19.563 95.5578 19.3921 95.7432C19.2209 95.929 18.972 96.0963 18.654 96.0963C18.336 96.0963 18.0871 95.929 17.9158 95.7432C17.745 95.5578 17.614 95.3169 17.5142 95.0611C17.3135 94.5462 17.2001 93.8686 17.2001 93.1451C17.2001 92.4216 17.3135 91.744 17.5142 91.2291C17.614 90.9732 17.745 90.7323 17.9158 90.547Z" fill="#1D477A"/>
<path fill-rule="evenodd" clip-rule="evenodd" d="M6 163C6 162.448 6.44625 162 6.99674 162H243.003C243.554 162 244 162.448 244 163C244 163.552 243.554 164 243.003 164H6.99674C6.44625 164 6 163.552 6 163Z" fill="#17375E"/>
<path d="M78.1319 41.0671H231.209C231.209 41.0671 231.835 35.683 225.789 36.0147C219.744 36.356 86.2714 36.0147 86.2714 36.0147C86.2714 36.0147 79.5912 35.9673 78.1319 41.0671Z" fill="#17375E"/>
</svg>
